<svg width="24" height="21" viewBox="0 0 24 21" fill="none" xmlns="http://www.w3.org/2000/svg">
<path d="M21.3333 0C22.0406 0 22.7189 0.245833 23.219 0.683417C23.719 1.121 24 1.71449 24 2.33333V18.6667C24 19.2855 23.719 19.879 23.219 20.3166C22.7189 20.7542 22.0406 21 21.3333 21H2.66667C1.95942 21 1.28115 20.7542 0.781048 20.3166C0.280951 19.879 0 19.2855 0 18.6667V2.33333C0 1.71449 0.280951 1.121 0.781048 0.683417C1.28115 0.245833 1.95942 0 2.66667 0H21.3333ZM20.6667 18.0833V11.9C20.6667 10.8913 20.2087 9.9239 19.3936 9.21064C18.5784 8.49737 17.4728 8.09667 16.32 8.09667C15.1867 8.09667 13.8667 8.70333 13.2267 9.61333V8.31833H9.50667V18.0833H13.2267V12.3317C13.2267 11.4333 14.0533 10.6983 15.08 10.6983C15.5751 10.6983 16.0499 10.8704 16.3999 11.1767C16.75 11.483 16.9467 11.8985 16.9467 12.3317V18.0833H20.6667ZM5.17333 6.48667C5.76742 6.48667 6.33717 6.28017 6.75725 5.9126C7.17733 5.54502 7.41333 5.04649 7.41333 4.52667C7.41333 3.44167 6.41333 2.555 5.17333 2.555C4.57571 2.555 4.00257 2.76273 3.57999 3.13249C3.1574 3.50225 2.92 4.00375 2.92 4.52667C2.92 5.61167 3.93333 6.48667 5.17333 6.48667ZM7.02667 18.0833V8.31833H3.33333V18.0833H7.02667Z" fill="#BCC1C6"/>
</svg>
