<svg width="24" height="27" viewBox="0 0 24 27" fill="none" xmlns="http://www.w3.org/2000/svg">
<path d="M12 13.758C12.825 13.758 13.5315 13.4883 14.1195 12.949C14.7065 12.4106 15 11.7631 15 11.0064C15 10.2497 14.7065 9.60168 14.1195 9.06237C13.5315 8.52397 12.825 8.25478 12 8.25478C11.175 8.25478 10.469 8.52397 9.882 9.06237C9.294 9.60168 9 10.2497 9 11.0064C9 11.7631 9.294 12.4106 9.882 12.949C10.469 13.4883 11.175 13.758 12 13.758ZM12 27C11.8 27 11.6 26.9656 11.4 26.8968C11.2 26.828 11.025 26.7363 10.875 26.6217C7.225 23.6637 4.5 20.9181 2.7 18.3848C0.9 15.8505 0 13.4828 0 11.2815C0 7.84204 1.2065 5.10191 3.6195 3.06115C6.0315 1.02038 8.825 0 12 0C15.175 0 17.9685 1.02038 20.3805 3.06115C22.7935 5.10191 24 7.84204 24 11.2815C24 13.4828 23.1 15.8505 21.3 18.3848C19.5 20.9181 16.775 23.6637 13.125 26.6217C12.975 26.7363 12.8 26.828 12.6 26.8968C12.4 26.9656 12.2 27 12 27Z" fill="#BCC1C6"/>
</svg>
