<svg width="24" height="21" viewBox="0 0 24 21" fill="none" xmlns="http://www.w3.org/2000/svg">
<path d="M22.6 21C22.8222 21 23.0556 20.9953 23.3 20.986C23.5444 20.9759 23.7778 20.9611 24 20.9417V14.1167L17.3333 12.95L13.4667 16.3333C11.7778 15.4389 10.2276 14.3792 8.816 13.1542C7.40533 11.9292 6.23333 10.6167 5.3 9.21667L9.1 5.8625L7.86667 0H0.0666649C0.0222205 0.194444 -7.15256e-07 0.398611 -7.15256e-07 0.6125V1.225C-7.15256e-07 3.73333 0.63911 6.17828 1.91733 8.55983C3.19467 10.9422 4.88355 13.0569 6.984 14.9042C9.08355 16.7514 11.4942 18.2292 14.216 19.3375C16.9387 20.4458 19.7333 21 22.6 21Z" fill="#BCC1C6"/>
</svg>
