<svg width="27" height="27" viewBox="0 0 27 27" fill="none" xmlns="http://www.w3.org/2000/svg">
<path d="M13.5 0C6.04487 0 0 6.04487 0 13.5C0 20.9551 6.04487 27 13.5 27C20.9551 27 27 20.9551 27 13.5C27 6.04487 20.9551 0 13.5 0ZM19.9878 10.1762C19.9969 10.3179 19.9969 10.4655 19.9969 10.6102C19.9969 15.0338 16.6279 20.1295 10.4715 20.1295C8.5731 20.1295 6.81328 19.578 5.33069 18.6288C5.6019 18.6589 5.86105 18.671 6.13828 18.671C7.70525 18.671 9.14565 18.1406 10.2938 17.2426C8.82321 17.2125 7.58772 16.2482 7.16585 14.9223C7.68114 14.9977 8.1452 14.9977 8.67556 14.8621C7.91837 14.7082 7.23779 14.297 6.74945 13.6982C6.2611 13.0995 5.9951 12.3501 5.99665 11.5775V11.5353C6.43962 11.7854 6.96094 11.9391 7.50636 11.9602C7.04785 11.6546 6.67183 11.2406 6.41163 10.7549C6.15143 10.2692 6.0151 9.72679 6.01473 9.17578C6.01473 8.55201 6.17746 7.98248 6.46975 7.48828C7.3102 8.52289 8.35894 9.36907 9.54783 9.97182C10.7367 10.5746 12.0391 10.9204 13.3704 10.9868C12.8973 8.71172 14.5969 6.87054 16.64 6.87054C17.6042 6.87054 18.4721 7.27433 19.0838 7.92522C19.8402 7.78359 20.5634 7.50033 21.2083 7.12065C20.9581 7.89509 20.4338 8.549 19.7377 8.96183C20.4127 8.88951 21.0636 8.70268 21.6663 8.44051C21.2113 9.10949 20.6417 9.70313 19.9878 10.1762Z" fill="#BCC1C6"/>
</svg>
